<svg width="124" height="56" viewBox="0 0 124 56" fill="none" xmlns="http://www.w3.org/2000/svg">
<path d="M74.6469 19.7277L73.4899 19.6803C72.6221 19.6803 72.0597 19.8857 71.8026 20.2964C71.7383 20.3912 71.6579 20.4386 71.5615 20.4386C71.1437 20.4386 70.9348 19.7435 70.9348 18.3533C70.9348 16.9314 71.1437 16.031 71.5615 15.6518C72.0115 15.2727 72.7668 15.0831 73.8274 15.0831C74.9201 15.0831 75.6594 15.2727 76.045 15.6518C76.4307 15.9994 76.6236 16.5997 76.6236 17.4528C76.6236 18.3059 76.4789 18.9062 76.1897 19.2538C75.9004 19.5697 75.3862 19.7277 74.6469 19.7277ZM70.7902 53.5355L71.3205 32.6189C71.3205 29.9964 71.0151 28.2112 70.4045 27.2634C70.2116 26.9474 69.9867 26.7104 69.7295 26.5525C69.5367 26.4893 69.4403 26.3629 69.4403 26.1733C69.4403 25.6046 70.2598 25.0516 71.899 24.5145C73.5381 23.9774 74.7273 23.7088 75.4665 23.7088C76.2379 23.7088 76.6396 23.8984 76.6718 24.2775C76.6718 24.9095 76.5753 26.7104 76.3825 29.6805C76.2218 32.6189 76.1415 35.7153 76.1415 38.9697C76.1415 42.2241 76.3343 54.12 76.72 54.9099C76.8164 55.0679 76.8646 55.2259 76.8646 55.3839C76.8646 55.7946 76.2539 56 75.0326 56C73.8113 56 72.5578 55.684 71.2722 55.0521C70.9508 54.8941 70.7902 54.3886 70.7902 53.5355Z" fill="#454545"/>
<path d="M89.5419 28.7326L88.4331 29.0169C87.8546 29.0169 87.5653 28.4956 87.5653 27.4529C87.5653 26.3787 87.951 25.5256 88.7224 24.8937C89.5259 24.2301 90.5383 23.8984 91.7596 23.8984C92.4345 23.8984 93.1577 24.1038 93.929 24.5145C94.7004 24.8937 95.3432 25.3834 95.8574 25.9837C96.3717 26.5525 96.8216 27.4687 97.2073 28.7326C97.6251 29.9648 97.8341 31.4182 97.8341 33.0928C97.8341 36.9476 96.7734 40.0756 94.6522 42.4769C92.5631 44.8782 89.5259 46.0788 85.5405 46.0788C84.3835 46.0788 83.2425 45.9682 82.1176 45.7471L81.6355 45.6523C81.2177 45.5259 80.9766 45.3047 80.9124 44.9888C80.8159 44.3252 80.7677 42.7612 80.7677 40.2967L81.057 24.9411C81.057 22.5713 80.9927 20.7546 80.8641 19.4907L80.7677 18.8272C80.7035 17.9425 80.5106 17.1842 80.1892 16.5523C79.8999 15.9204 79.6107 15.5096 79.3214 15.32L78.9357 15.0831C78.7108 14.9567 78.5983 14.8145 78.5983 14.6565C78.5983 14.1826 79.4018 13.6297 81.0088 12.9977C82.6158 12.3342 83.7889 12.0025 84.5281 12.0025C85.2673 12.0025 85.653 12.192 85.6851 12.5712C85.9101 14.4985 86.0226 17.2474 86.0226 20.8178L85.7816 32.1924C85.7816 37.1529 85.9262 40.5811 86.2155 42.4769C86.2476 42.9192 86.7458 43.1404 87.71 43.1404C88.7063 43.1404 89.558 42.8718 90.2651 42.3347C90.9722 41.7976 91.5025 41.0866 91.856 40.202C92.4988 38.5906 92.8202 36.8054 92.8202 34.8464C92.8202 33.9301 92.6917 32.9349 92.4345 31.8606C91.9846 29.7753 91.0204 28.7326 89.5419 28.7326Z" fill="#454545"/>
<path d="M105.144 17.9741L104.855 35.3678C104.855 40.8023 105.031 44.0567 105.385 45.1309C105.481 45.3205 105.53 45.5101 105.53 45.6997C105.53 46.0788 105.064 46.2684 104.131 46.2684C103.199 46.2684 102.155 46.0314 100.998 45.5575C99.8729 45.1152 99.3105 44.5306 99.3105 43.8039C99.9533 39.3805 100.275 33.472 100.275 26.0785L100.082 18.8272C100.018 17.9425 99.8247 17.1842 99.5033 16.5523C99.2141 15.9204 98.9248 15.5096 98.6355 15.32L98.2499 15.0831C98.0249 14.9567 97.9124 14.8145 97.9124 14.6565C97.9124 14.2142 98.6034 13.677 99.9854 13.0451C101.4 12.3816 102.766 12.0499 104.083 12.0499C104.598 12.0499 104.887 12.2236 104.951 12.5712C105.08 13.3927 105.144 15.1937 105.144 17.9741Z" fill="#454545"/>
<path d="M113.008 33.0454L113.056 34.2303C113.056 34.4199 113.185 34.5147 113.442 34.5147C114.471 34.4199 115.37 34.1671 116.142 33.7564C116.913 33.314 117.492 32.8243 117.877 32.2871C118.649 31.1181 119.067 30.107 119.131 29.2539L119.179 28.6852C119.179 26.979 118.488 26.1259 117.106 26.1259C116.078 26.1259 115.242 26.5682 114.599 27.4529C113.538 28.8432 113.008 30.7073 113.008 33.0454ZM123.518 39.3489C123.518 40.5495 123.261 41.608 122.747 42.5243C122.264 43.409 121.702 44.0725 121.059 44.5148C120.449 44.9256 119.725 45.2573 118.89 45.5101C117.829 45.8261 116.817 45.984 115.853 45.984C113.153 45.984 111.16 44.9888 109.874 42.9982C108.589 41.0077 107.946 38.48 107.946 35.4152C107.946 32.3187 108.734 29.5699 110.308 27.1686C111.915 24.7673 114.31 23.5666 117.492 23.5666C120.384 23.5666 122.345 24.5619 123.373 26.5525C123.791 27.3108 124 28.0375 124 28.7326C124 29.3961 123.968 29.9332 123.904 30.344C123.839 30.7231 123.614 31.3077 123.229 32.0976C122.843 32.8875 122.329 33.5984 121.686 34.2303C121.043 34.8622 120.031 35.4625 118.649 36.0313C117.267 36.6 115.644 36.9792 113.779 37.1687C113.522 37.1687 113.394 37.2793 113.394 37.5005C113.394 37.7849 113.49 38.2114 113.683 38.7801C113.908 39.3173 114.149 39.7754 114.406 40.1546C115.113 41.0393 116.158 41.4816 117.54 41.4816C118.922 41.4816 120.095 41.0393 121.059 40.1546C121.573 39.6806 121.991 39.0961 122.313 38.401C122.441 38.1482 122.602 38.0218 122.795 38.0218C123.02 38.0218 123.196 38.1956 123.325 38.5432C123.454 38.8907 123.518 39.1593 123.518 39.3489Z" fill="#454545"/>
<path fill-rule="evenodd" clip-rule="evenodd" d="M54.1615 27.216C53.3258 27.2476 52.7152 27.2792 52.3295 27.3108C51.5868 27.3594 45.1558 27.8178 43.6704 27.8178L36.9119 27.5988C34.1392 35.9222 30.4009 42.542 25.6972 47.4582C20.9935 52.3744 16.0174 54.8324 10.7691 54.8324C7.55072 54.8324 4.95129 53.8833 2.97078 51.9849C0.990258 50.0866 0 47.5799 0 44.4647C0 39.4511 3.04504 34.9 9.13513 30.8113C15.2252 26.6739 22.7264 24.4835 31.6388 24.2402C34.659 14.8946 38.1992 8.95621 42.2593 6.42511L30.3019 5.98703C25.3011 5.98703 21.5629 6.61981 19.0872 7.88536C16.6611 9.15091 15.448 10.8302 15.448 12.9232C15.448 14.0428 15.9184 14.9919 16.8591 15.7707C17.7999 16.5008 18.7406 16.8659 19.6814 16.8659C20.6221 16.8659 21.3153 16.8416 21.7609 16.7929C22.2561 16.6955 22.8502 16.5252 23.5434 16.2818C24.2861 15.9898 24.806 15.7951 25.1031 15.6977C26.1428 15.357 27.4054 14.8216 28.8908 14.0914L30.4504 15.9898C26.6875 19.6891 22.5779 21.5387 18.1217 21.5387C16.1412 21.5387 14.5073 20.9303 13.2199 19.7134C11.9326 18.4965 11.2889 16.9633 11.2889 15.1136C11.2889 11.0736 13.3932 7.66632 17.6018 4.89184C21.8104 2.11736 27.4302 0.730125 34.461 0.730125L52.0628 1.24122C52.9541 1.24122 54.0681 1.04651 55.405 0.657113C56.7913 0.219038 57.7073 0 58.1529 0C58.5985 0 58.9451 0.146026 59.1927 0.438078C59.4898 0.681453 59.6383 0.99784 59.6383 1.38724C59.6383 2.40942 59.1679 3.28557 58.2272 4.01569C57.2864 4.69714 56.0486 5.18389 54.5137 5.47594C51.642 6.10872 49.0921 6.42511 46.864 6.42511C43.8437 8.46946 40.8977 14.3591 38.0259 24.0941C42.9277 24.0941 61.3135 23.5154 62.5018 23.6614C64.1731 23.6614 65.4908 23.8036 66.455 24.088L66.9371 24.2301C67.3228 24.3881 67.5156 24.5619 67.5156 24.7515C67.5156 24.9095 67.4032 25.0358 67.1782 25.1306C66.3104 25.3834 65.4748 25.7941 64.6713 26.3629C63.8678 26.9 63.466 27.2792 63.466 27.5003L63.7553 27.8321C64.7837 28.4008 65.5712 29.3013 66.1176 30.5336C66.6961 31.7658 67.0175 32.8559 67.0818 33.8038L67.1782 35.273C67.1782 38.401 66.2943 40.9761 64.5266 42.9982C62.7589 45.0204 60.3484 46.0314 57.2951 46.0314C55.7524 46.0314 54.4186 45.7629 53.2937 45.2257C52.1688 44.6886 51.3332 44.0883 50.7868 43.4248C50.2726 42.7296 49.8547 41.9555 49.5333 41.1024C49.1477 39.9334 48.9548 38.7327 48.9548 37.5005C48.9548 36.2366 49.1637 34.9728 49.5815 33.709C50.0315 32.4451 50.5297 31.513 51.0761 30.9127C51.6546 30.3124 52.2974 29.8226 53.0044 29.4435C53.9044 28.9696 54.6275 28.7326 55.1739 28.7326C55.7203 28.7326 55.9935 28.8432 55.9935 29.0643L55.7042 29.5383C54.9971 30.3598 54.4829 31.434 54.1615 32.7611C53.8722 34.0881 53.7276 35.273 53.7276 36.3156C53.7276 37.3267 53.8562 38.3378 54.1133 39.3489C54.3704 40.3599 54.6597 41.1182 54.9811 41.6238C55.3025 42.0977 55.6721 42.4611 56.0899 42.7138C56.7005 43.093 57.3433 43.2826 58.0183 43.2826C58.6932 43.2826 59.3521 43.0298 59.9949 42.5243C60.6377 41.9871 61.1037 41.292 61.393 40.4389C61.9715 38.8591 62.2608 37.2319 62.2608 35.5573C62.2608 32.9033 61.5697 30.8495 60.1877 29.3961C58.8379 27.9427 56.8291 27.216 54.1615 27.216ZM30.4504 27.8178C28.866 32.88 26.737 37.4554 24.0633 41.5442C22.4789 44.0266 20.6716 45.9736 18.6416 47.3852C16.6116 48.8454 14.7301 49.5755 12.9971 49.5755C11.2642 49.5755 9.85307 49.0888 8.76379 48.1153C7.72402 47.1418 7.20413 45.9006 7.20413 44.3916C7.20413 40.5463 9.53124 36.9444 14.1855 33.5858C18.8892 30.2272 24.3108 28.3045 30.4504 27.8178Z" fill="#454545"/>
</svg>
